<svg xmlns="http://www.w3.org/2000/svg" viewBox="0 0 160 160" width="100%" height="100%">
  <defs>
    <radialGradient id="grapeGrad" cx="35%" cy="30%" r="65%">
      <stop offset="0%" stop-color="#C084FC"/>
      <stop offset="40%" stop-color="#9333EA"/>
      <stop offset="90%" stop-color="#6B21A8"/>
      <stop offset="100%" stop-color="#3B0764"/>
    </radialGradient>
    <filter id="gShadow">
      <feDropShadow dx="0" dy="4" stdDeviation="4" flood-opacity="0.22" flood-color="#2E0854"/>
    </filter>
  </defs>
  <circle cx="80" cy="80" r="72" fill="#F3E8FF" opacity="0.6"/>
  <!-- Vine Stem and Leaves -->
  <path d="M80 20 Q84 34 78 48" stroke="#78350F" stroke-width="4.5" fill="none" stroke-linecap="round"/>
  <path d="M78 32 C96 22, 114 26, 118 36 C106 44, 88 42, 78 32 Z" fill="#15803D"/>
  <!-- Grape cluster -->
  <g filter="url(#gShadow)">
    <circle cx="64" cy="56" r="14" fill="url(#grapeGrad)"/>
    <circle cx="94" cy="56" r="14" fill="url(#grapeGrad)"/>
    <circle cx="79" cy="62" r="14" fill="url(#grapeGrad)"/>
    <circle cx="54" cy="76" r="13" fill="url(#grapeGrad)"/>
    <circle cx="76" cy="80" r="14" fill="url(#grapeGrad)"/>
    <circle cx="98" cy="76" r="13" fill="url(#grapeGrad)"/>
    <circle cx="62" cy="98" r="13" fill="url(#grapeGrad)"/>
    <circle cx="86" cy="98" r="13" fill="url(#grapeGrad)"/>
    <circle cx="72" cy="116" r="12" fill="url(#grapeGrad)"/>
    <circle cx="86" cy="118" r="11" fill="url(#grapeGrad)"/>
    <circle cx="78" cy="132" r="9" fill="url(#grapeGrad)"/>
  </g>
  <!-- Gloss dots -->
  <circle cx="75" cy="58" r="3" fill="#FFF" opacity="0.4"/>
  <circle cx="72" cy="76" r="3" fill="#FFF" opacity="0.4"/>
  <circle cx="82" cy="94" r="2.5" fill="#FFF" opacity="0.4"/>
</svg>
