<svg xmlns="http://www.w3.org/2000/svg" viewBox="0 0 160 160" width="100%" height="100%">
  <defs>
    <linearGradient id="ojGrad" x1="0%" y1="0%" x2="0%" y2="100%">
      <stop offset="0%" stop-color="#FDBA74"/>
      <stop offset="30%" stop-color="#FB923C"/>
      <stop offset="100%" stop-color="#EA580C"/>
    </linearGradient>
    <filter id="ojS">
      <feDropShadow dx="0" dy="5" stdDeviation="5" flood-opacity="0.2" flood-color="#9A3412"/>
    </filter>
  </defs>
  <circle cx="80" cy="80" r="72" fill="#FFEDD5" opacity="0.65"/>
  <!-- Straw -->
  <line x1="88" y1="20" x2="68" y2="120" stroke="#22C55E" stroke-width="5" stroke-linecap="round"/>
  <line x1="88" y1="20" x2="102" y2="16" stroke="#22C55E" stroke-width="5" stroke-linecap="round"/>
  <!-- Glass Cup -->
  <g filter="url(#ojS)">
    <!-- Liquid -->
    <polygon points="56,60 104,60 98,132 62,132" fill="url(#ojGrad)"/>
    <!-- Glass Outline -->
    <polygon points="52,48 108,48 100,136 60,136" fill="#FFFFFF" fill-opacity="0.2" stroke="#FFFFFF" stroke-width="2.5"/>
  </g>
  <!-- Orange slice on rim -->
  <circle cx="50" cy="48" r="18" fill="#F97316"/>
  <circle cx="50" cy="48" r="15" fill="#FFEDD5"/>
  <circle cx="50" cy="48" r="13" fill="#EA580C"/>
  <path d="M50 48 L50 35 M50 48 L61 41 M50 48 L61 55 M50 48 L50 61 M50 48 L39 55 M50 48 L39 41" stroke="#FFEDD5" stroke-width="1.2"/>
  <!-- Glass Sheen -->
  <line x1="62" y1="56" x2="68" y2="128" stroke="#FFFFFF" stroke-width="3" stroke-linecap="round" opacity="0.5"/>
</svg>
